{
	"buffers": [
		{
			"uri": "data:application/octet-stream;base64,",
			"byteLength": 942
		}
	],
	"accessors": [
		{
			"bufferView": 1,
			"componentType": 5126,
			"count": 3,
			"type": "VEC3",
			"max": [
				2,
				2,
				0
			],
			"min": [
				-2,
				-2,
				0
			]
		},
		{
			"bufferView": 1,
			"byteOffset": 12,
			"componentType": 5126,
			"count": 3,
			"type": "VEC3"
		},
		{
			"bufferView": 1,
			"byteOffset": 24,
			"componentType": 5126,
			"count": 3,
			"type": "VEC2"
		},
		{
			"bufferView": 2,
			"componentType": 5123,
			"count": 3,
			"type": "SCALAR"
		}
	],
	"asset": {
		"generator": "qmuntal/gltf",
		"version": "2.0"
	},
	"bufferViews": [
		{
			"buffer": 0,
			"byteLength": 840
		},
		{
			"buffer": 0,
			"byteOffset": 840,
			"byteLength": 96,
			"byteStride": 32,
			"target": 34962
		},
		{
			"buffer": 0,
			"byteOffset": 936,
			"byteLength": 6,
			"target": 34963
		}
	],
	"images": [
		{
			"name": "material.png",
			"mimeType": "image/png",
			"bufferView": 0
		}
	],
	"materials": [
		{
			"name": "material",
			"pbrMetallicRoughness": {
				"baseColorTexture": {
					"index": 0
				},
				"metallicFactor": 0
			}
		}
	],
	"meshes": [
		{
			"name": "triangle_material",
			"primitives": [
				{
					"attributes": {
						"NORMAL": 1,
						"POSITION": 0,
						"TEXCOORD_0": 2
					},
					"indices": 3,
					"material": 0
				}
			]
		}
	],
	"nodes": [
		{
			"name": "triangle_material",
			"mesh": 0
		}
	],
	"scene": 0,
	"scenes": [
		{
			"name": "Root Scene",
			"nodes": [
				0
			]
		}
	],
	"textures": [
		{
			"source": 0
		}
	]
}