{
    "asset" : {
        "generator" : "Khronos glTF Blender I/O v1.8.19",
        "version" : "2.0"
    },
    "extensionsUsed" : [
        "KHR_lights_punctual"
    ],
    "extensionsRequired" : [
        "KHR_lights_punctual"
    ],
    "extensions" : {
        "KHR_lights_punctual" : {
            "lights" : [
                {
                    "color" : [
                        0.37575793266296387,
                        0.06998134404420853,
                        1
                    ],
                    "intensity" : 100,
                    "type" : "directional",
                    "name" : "Lamp"
                }
            ]
        }
    },
    "scene" : 0,
    "scenes" : [
        {
            "name" : "Scene",
            "nodes" : [
                0,
                2,
                4
            ]
        }
    ],
    "nodes" : [
        {
            "mesh" : 0,
            "name" : "Cube.002",
            "scale" : [
                0.5866372585296631,
                0.8107304573059082,
                0.37152886390686035
            ],
            "translation" : [
                -0.2801523506641388,
                2.169999837875366,
                -0.8617093563079834
            ]
        },
        {
            "extensions" : {
                "KHR_lights_punctual" : {
                    "light" : 0
                }
            },
            "name" : "Lamp_Orientation",
            "rotation" : [
                -0.7071067690849304,
                0,
                0,
                0.7071067690849304
            ]
        },
        {
            "children" : [
                1
            ],
            "name" : "Lamp",
            "rotation" : [
                -0.18081319332122803,
                0.4173046946525574,
                0.6618357300758362,
                0.5959336161613464
            ],
            "translation" : [
                2.916245460510254,
                5.903861999511719,
                -1.0154539346694946
            ]
        },
        {
            "camera" : 0,
            "name" : "Camera_Orientation",
            "rotation" : [
                -0.7071067690849304,
                0,
                0,
                0.7071067690849304
            ]
        },
        {
            "children" : [
                3
            ],
            "name" : "Camera",
            "rotation" : [
                0.483536034822464,
                0.33687159419059753,
                -0.20870360732078552,
                0.7804827094078064
            ],
            "translation" : [
                7.481131553649902,
                5.34366512298584,
                6.5076398849487305
            ]
        }
    ],
    "cameras" : [
        {
            "name" : "Camera",
            "perspective" : {
                "aspectRatio" : 1.7777777777777777,
                "yfov" : 0.5033799372418416,
                "zfar" : 100,
                "znear" : 0.10000000149011612
            },
            "type" : "perspective"
        }
    ],
    "materials" : [
        {
            "doubleSided" : true,
            "name" : "Jacket",
            "pbrMetallicRoughness" : {
                "baseColorFactor" : [
                    0.012485492043197155,
                    0,
                    0.2597973644733429,
                    1
                ],
                "metallicFactor" : 0,
                "roughnessFactor" : 0.5
            }
        },
        {
            "doubleSided" : true,
            "name" : "Black areas",
            "pbrMetallicRoughness" : {
                "baseColorFactor" : [
                    0,
                    0,
                    0,
                    1
                ],
                "metallicFactor" : 0,
                "roughnessFactor" : 0.5
            }
        },
        {
            "doubleSided" : true,
            "name" : "Furr",
            "pbrMetallicRoughness" : {
                "baseColorFactor" : [
                    1,
                    1,
                    1,
                    1
                ],
                "metallicFactor" : 0,
                "roughnessFactor" : 0.5
            }
        },
        {
            "doubleSided" : true,
            "name" : "Material.002",
            "pbrMetallicRoughness" : {
                "baseColorFactor" : [
                    1,
                    1,
                    1,
                    1
                ],
                "metallicFactor" : 0,
                "roughnessFactor" : 0.5
            }
        },
        {
            "doubleSided" : true,
            "name" : "Skull",
            "pbrMetallicRoughness" : {
                "baseColorFactor" : [
                    1,
                    1,
                    1,
                    1
                ],
                "metallicFactor" : 0,
                "roughnessFactor" : 0.5
            }
        },
        {
            "doubleSided" : true,
            "name" : "Dark spots",
            "pbrMetallicRoughness" : {
                "baseColorFactor" : [
                    0,
                    0,
                    0,
                    1
                ],
                "metallicFactor" : 0,
                "roughnessFactor" : 0.5
            }
        },
        {
            "doubleSided" : true,
            "name" : "Material.007",
            "pbrMetallicRoughness" : {
                "baseColorFactor" : [
                    1,
                    1,
                    1,
                    1
                ],
                "metallicFactor" : 0,
                "roughnessFactor" : 0.5
            }
        },
        {
            "doubleSided" : true,
            "name" : "Material.005",
            "pbrMetallicRoughness" : {
                "baseColorFactor" : [
                    1,
                    1,
                    1,
                    1
                ],
                "metallicFactor" : 0,
                "roughnessFactor" : 0.5
            }
        },
        {
            "doubleSided" : true,
            "name" : "Material.003",
            "pbrMetallicRoughness" : {
                "baseColorFactor" : [
                    0.004124685190618038,
                    0,
                    0.28100818395614624,
                    1
                ],
                "metallicFactor" : 0,
                "roughnessFactor" : 0.5
            }
        },
        {
            "doubleSided" : true,
            "name" : "Material.006",
            "pbrMetallicRoughness" : {
                "baseColorFactor" : [
                    0.8000000715255737,
                    0.3688969016075134,
                    0.6888362765312195,
                    1
                ],
                "metallicFactor" : 0,
                "roughnessFactor" : 0.5
            }
        },
        {
            "doubleSided" : true,
            "name" : "Material.004",
            "pbrMetallicRoughness" : {
                "baseColorFactor" : [
                    0,
                    0,
                    0,
                    1
                ],
                "metallicFactor" : 0,
                "roughnessFactor" : 0.5
            }
        }
    ],
    "meshes" : [
        {
            "name" : "Cube.017",
            "primitives" : [
                {
                    "attributes" : {
                        "POSITION" : 0,
                        "NORMAL" : 1,
                        "TEXCOORD_0" : 2
                    },
                    "indices" : 3,
                    "material" : 0
                },
                {
                    "attributes" : {
                        "POSITION" : 4,
                        "NORMAL" : 5,
                        "TEXCOORD_0" : 6
                    },
                    "indices" : 7,
                    "material" : 1
                },
                {
                    "attributes" : {
                        "POSITION" : 8,
                        "NORMAL" : 9,
                        "TEXCOORD_0" : 10
                    },
                    "indices" : 11,
                    "material" : 2
                },
                {
                    "attributes" : {
                        "POSITION" : 12,
                        "NORMAL" : 13,
                        "TEXCOORD_0" : 14
                    },
                    "indices" : 15,
                    "material" : 3
                },
                {
                    "attributes" : {
                        "POSITION" : 16,
                        "NORMAL" : 17,
                        "TEXCOORD_0" : 18
                    },
                    "indices" : 19,
                    "material" : 4
                },
                {
                    "attributes" : {
                        "POSITION" : 20,
                        "NORMAL" : 21,
                        "TEXCOORD_0" : 22
                    },
                    "indices" : 23,
                    "material" : 5
                },
                {
                    "attributes" : {
                        "POSITION" : 24,
                        "NORMAL" : 25,
                        "TEXCOORD_0" : 26
                    },
                    "indices" : 27,
                    "material" : 6
                },
                {
                    "attributes" : {
                        "POSITION" : 28,
                        "NORMAL" : 29,
                        "TEXCOORD_0" : 30
                    },
                    "indices" : 31,
                    "material" : 7
                },
                {
                    "attributes" : {
                        "POSITION" : 32,
                        "NORMAL" : 33,
                        "TEXCOORD_0" : 34
                    },
                    "indices" : 27,
                    "material" : 8
                },
                {
                    "attributes" : {
                        "POSITION" : 35,
                        "NORMAL" : 36,
                        "TEXCOORD_0" : 37
                    },
                    "indices" : 38,
                    "material" : 9
                },
                {
                    "attributes" : {
                        "POSITION" : 39,
                        "NORMAL" : 40,
                        "TEXCOORD_0" : 41
                    },
                    "indices" : 42,
                    "material" : 10
                }
            ]
        }
    ],
    "accessors" : [
        {
            "bufferView" : 0,
            "componentType" : 5126,
            "count" : 383,
            "max" : [
                1.2666569948196411,
                1.2017353773117065,
                1
            ],
            "min" : [
                -1.2685034275054932,
                -1,
                -1.7311217784881592
            ],
            "type" : "VEC3"
        },
        {
            "bufferView" : 1,
            "componentType" : 5126,
            "count" : 383,
            "type" : "VEC3"
        },
        {
            "bufferView" : 2,
            "componentType" : 5126,
            "count" : 383,
            "type" : "VEC2"
        },
        {
            "bufferView" : 3,
            "componentType" : 5123,
            "count" : 609,
            "type" : "SCALAR"
        },
        {
            "bufferView" : 4,
            "componentType" : 5126,
            "count" : 99,
            "max" : [
                0.6720715761184692,
                1.2017353773117065,
                1
            ],
            "min" : [
                -0.6692996621131897,
                0.25,
                -1.1916046142578125
            ],
            "type" : "VEC3"
        },
        {
            "bufferView" : 5,
            "componentType" : 5126,
            "count" : 99,
            "type" : "VEC3"
        },
        {
            "bufferView" : 6,
            "componentType" : 5126,
            "count" : 99,
            "type" : "VEC2"
        },
        {
            "bufferView" : 7,
            "componentType" : 5123,
            "count" : 159,
            "type" : "SCALAR"
        },
        {
            "bufferView" : 8,
            "componentType" : 5126,
            "count" : 52,
            "max" : [
                1.2666569948196411,
                1.2017353773117065,
                1
            ],
            "min" : [
                -1.2685034275054932,
                1,
                -1.7311217784881592
            ],
            "type" : "VEC3"
        },
        {
            "bufferView" : 9,
            "componentType" : 5126,
            "count" : 52,
            "type" : "VEC3"
        },
        {
            "bufferView" : 10,
            "componentType" : 5126,
            "count" : 52,
            "type" : "VEC2"
        },
        {
            "bufferView" : 11,
            "componentType" : 5123,
            "count" : 78,
            "type" : "SCALAR"
        },
        {
            "bufferView" : 12,
            "componentType" : 5126,
            "count" : 24,
            "max" : [
                0.17463122308254242,
                2.083706855773926,
                0.17594687640666962
            ],
            "min" : [
                -0.17463122308254242,
                0.8241599798202515,
                -0.30476874113082886
            ],
            "type" : "VEC3"
        },
        {
            "bufferView" : 13,
            "componentType" : 5126,
            "count" : 24,
            "type" : "VEC3"
        },
        {
            "bufferView" : 14,
            "componentType" : 5126,
            "count" : 24,
            "type" : "VEC2"
        },
        {
            "bufferView" : 15,
            "componentType" : 5123,
            "count" : 36,
            "type" : "SCALAR"
        },
        {
            "bufferView" : 16,
            "componentType" : 5126,
            "count" : 836,
            "max" : [
                1.2714276313781738,
                2.7576022148132324,
                2.295088291168213
            ],
            "min" : [
                -1.2710403203964233,
                1.1192386150360107,
                -1.2042973041534424
            ],
            "type" : "VEC3"
        },
        {
            "bufferView" : 17,
            "componentType" : 5126,
            "count" : 836,
            "type" : "VEC3"
        },
        {
            "bufferView" : 18,
            "componentType" : 5126,
            "count" : 836,
            "type" : "VEC2"
        },
        {
            "bufferView" : 19,
            "componentType" : 5123,
            "count" : 1326,
            "type" : "SCALAR"
        },
        {
            "bufferView" : 20,
            "componentType" : 5126,
            "count" : 700,
            "max" : [
                0.9536192417144775,
                2.250955581665039,
                2.295088291168213
            ],
            "min" : [
                -0.9532318711280823,
                1.3240339756011963,
                0.19943895936012268
            ],
            "type" : "VEC3"
        },
        {
            "bufferView" : 21,
            "componentType" : 5126,
            "count" : 700,
            "type" : "VEC3"
        },
        {
            "bufferView" : 22,
            "componentType" : 5126,
            "count" : 700,
            "type" : "VEC2"
        },
        {
            "bufferView" : 23,
            "componentType" : 5123,
            "count" : 1050,
            "type" : "SCALAR"
        },
        {
            "bufferView" : 24,
            "componentType" : 5126,
            "count" : 48,
            "max" : [
                0.6726928949356079,
                2.0890913009643555,
                2.2524757385253906
            ],
            "min" : [
                -0.6599423289299011,
                1.9580076932907104,
                1.97249436378479
            ],
            "type" : "VEC3"
        },
        {
            "bufferView" : 25,
            "componentType" : 5126,
            "count" : 48,
            "type" : "VEC3"
        },
        {
            "bufferView" : 26,
            "componentType" : 5126,
            "count" : 48,
            "type" : "VEC2"
        },
        {
            "bufferView" : 27,
            "componentType" : 5123,
            "count" : 72,
            "type" : "SCALAR"
        },
        {
            "bufferView" : 28,
            "componentType" : 5126,
            "count" : 96,
            "max" : [
                5.296157360076904,
                0.6497114300727844,
                0.5804956555366516
            ],
            "min" : [
                -5.317704677581787,
                -2.9786808490753174,
                -0.6416950821876526
            ],
            "type" : "VEC3"
        },
        {
            "bufferView" : 29,
            "componentType" : 5126,
            "count" : 96,
            "type" : "VEC3"
        },
        {
            "bufferView" : 30,
            "componentType" : 5126,
            "count" : 96,
            "type" : "VEC2"
        },
        {
            "bufferView" : 31,
            "componentType" : 5123,
            "count" : 144,
            "type" : "SCALAR"
        },
        {
            "bufferView" : 32,
            "componentType" : 5126,
            "count" : 48,
            "max" : [
                3.8169302940368652,
                0.7871155142784119,
                0.3467312455177307
            ],
            "min" : [
                -3.8314127922058105,
                0.34593015909194946,
                -0.498971164226532
            ],
            "type" : "VEC3"
        },
        {
            "bufferView" : 33,
            "componentType" : 5126,
            "count" : 48,
            "type" : "VEC3"
        },
        {
            "bufferView" : 34,
            "componentType" : 5126,
            "count" : 48,
            "type" : "VEC2"
        },
        {
            "bufferView" : 35,
            "componentType" : 5126,
            "count" : 107,
            "max" : [
                0.9754356145858765,
                -2.5204436779022217,
                1.6082266569137573
            ],
            "min" : [
                -1.0813814401626587,
                -3.1618425846099854,
                -1.2264806032180786
            ],
            "type" : "VEC3"
        },
        {
            "bufferView" : 36,
            "componentType" : 5126,
            "count" : 107,
            "type" : "VEC3"
        },
        {
            "bufferView" : 37,
            "componentType" : 5126,
            "count" : 107,
            "type" : "VEC2"
        },
        {
            "bufferView" : 38,
            "componentType" : 5123,
            "count" : 168,
            "type" : "SCALAR"
        },
        {
            "bufferView" : 39,
            "componentType" : 5126,
            "count" : 82,
            "max" : [
                0.9907419085502625,
                -1.0034716129302979,
                0.9138062000274658
            ],
            "min" : [
                -0.9907419085502625,
                -2.158682346343994,
                -0.9446587562561035
            ],
            "type" : "VEC3"
        },
        {
            "bufferView" : 40,
            "componentType" : 5126,
            "count" : 82,
            "type" : "VEC3"
        },
        {
            "bufferView" : 41,
            "componentType" : 5126,
            "count" : 82,
            "type" : "VEC2"
        },
        {
            "bufferView" : 42,
            "componentType" : 5123,
            "count" : 132,
            "type" : "SCALAR"
        }
    ],
    "bufferViews" : [
        {
            "buffer" : 0,
            "byteLength" : 4596,
            "byteOffset" : 0
        },
        {
            "buffer" : 0,
            "byteLength" : 4596,
            "byteOffset" : 4596
        },
        {
            "buffer" : 0,
            "byteLength" : 3064,
            "byteOffset" : 9192
        },
        {
            "buffer" : 0,
            "byteLength" : 1218,
            "byteOffset" : 12256
        },
        {
            "buffer" : 0,
            "byteLength" : 1188,
            "byteOffset" : 13476
        },
        {
            "buffer" : 0,
            "byteLength" : 1188,
            "byteOffset" : 14664
        },
        {
            "buffer" : 0,
            "byteLength" : 792,
            "byteOffset" : 15852
        },
        {
            "buffer" : 0,
            "byteLength" : 318,
            "byteOffset" : 16644
        },
        {
            "buffer" : 0,
            "byteLength" : 624,
            "byteOffset" : 16964
        },
        {
            "buffer" : 0,
            "byteLength" : 624,
            "byteOffset" : 17588
        },
        {
            "buffer" : 0,
            "byteLength" : 416,
            "byteOffset" : 18212
        },
        {
            "buffer" : 0,
            "byteLength" : 156,
            "byteOffset" : 18628
        },
        {
            "buffer" : 0,
            "byteLength" : 288,
            "byteOffset" : 18784
        },
        {
            "buffer" : 0,
            "byteLength" : 288,
            "byteOffset" : 19072
        },
        {
            "buffer" : 0,
            "byteLength" : 192,
            "byteOffset" : 19360
        },
        {
            "buffer" : 0,
            "byteLength" : 72,
            "byteOffset" : 19552
        },
        {
            "buffer" : 0,
            "byteLength" : 10032,
            "byteOffset" : 19624
        },
        {
            "buffer" : 0,
            "byteLength" : 10032,
            "byteOffset" : 29656
        },
        {
            "buffer" : 0,
            "byteLength" : 6688,
            "byteOffset" : 39688
        },
        {
            "buffer" : 0,
            "byteLength" : 2652,
            "byteOffset" : 46376
        },
        {
            "buffer" : 0,
            "byteLength" : 8400,
            "byteOffset" : 49028
        },
        {
            "buffer" : 0,
            "byteLength" : 8400,
            "byteOffset" : 57428
        },
        {
            "buffer" : 0,
            "byteLength" : 5600,
            "byteOffset" : 65828
        },
        {
            "buffer" : 0,
            "byteLength" : 2100,
            "byteOffset" : 71428
        },
        {
            "buffer" : 0,
            "byteLength" : 576,
            "byteOffset" : 73528
        },
        {
            "buffer" : 0,
            "byteLength" : 576,
            "byteOffset" : 74104
        },
        {
            "buffer" : 0,
            "byteLength" : 384,
            "byteOffset" : 74680
        },
        {
            "buffer" : 0,
            "byteLength" : 144,
            "byteOffset" : 75064
        },
        {
            "buffer" : 0,
            "byteLength" : 1152,
            "byteOffset" : 75208
        },
        {
            "buffer" : 0,
            "byteLength" : 1152,
            "byteOffset" : 76360
        },
        {
            "buffer" : 0,
            "byteLength" : 768,
            "byteOffset" : 77512
        },
        {
            "buffer" : 0,
            "byteLength" : 288,
            "byteOffset" : 78280
        },
        {
            "buffer" : 0,
            "byteLength" : 576,
            "byteOffset" : 78568
        },
        {
            "buffer" : 0,
            "byteLength" : 576,
            "byteOffset" : 79144
        },
        {
            "buffer" : 0,
            "byteLength" : 384,
            "byteOffset" : 79720
        },
        {
            "buffer" : 0,
            "byteLength" : 1284,
            "byteOffset" : 80104
        },
        {
            "buffer" : 0,
            "byteLength" : 1284,
            "byteOffset" : 81388
        },
        {
            "buffer" : 0,
            "byteLength" : 856,
            "byteOffset" : 82672
        },
        {
            "buffer" : 0,
            "byteLength" : 336,
            "byteOffset" : 83528
        },
        {
            "buffer" : 0,
            "byteLength" : 984,
            "byteOffset" : 83864
        },
        {
            "buffer" : 0,
            "byteLength" : 984,
            "byteOffset" : 84848
        },
        {
            "buffer" : 0,
            "byteLength" : 656,
            "byteOffset" : 85832
        },
        {
            "buffer" : 0,
            "byteLength" : 264,
            "byteOffset" : 86488
        }
    ],
    "buffers" : [
        {
            "byteLength" : 86752,
            "uri" : "data:application/octet-stream;base64,"
        }
    ]
}
